<svg width="276" height="200" viewBox="0 0 276 200" fill="none" xmlns="http://www.w3.org/2000/svg">
<g clip-path="url(#clip0_21_83)">
<path fill-rule="evenodd" clip-rule="evenodd" d="M138.339 118.56L90.7861 102.065L124.732 34.5928L172.29 51.0874L138.339 118.56Z" fill="url(#paint0_linear_21_83)"/>
<path fill-rule="evenodd" clip-rule="evenodd" d="M125.146 93.9855H72.053L84.5687 23H137.662L125.146 93.9855Z" fill="url(#paint1_linear_21_83)"/>
<path fill-rule="evenodd" clip-rule="evenodd" d="M148.468 138.252H50.8054C47.3302 138.252 45.005 135.432 45.6178 131.957L55.9594 73.3105H159.917C163.393 73.3105 165.718 76.131 165.105 79.6062L155.876 131.957C155.263 135.432 151.947 138.252 148.472 138.252H148.468Z" fill="white"/>
<path fill-rule="evenodd" clip-rule="evenodd" d="M92.3858 138.251H44.5095L56.5342 70.0525C57.147 66.5773 60.4627 63.7568 63.9379 63.7568H99.2229C102.698 63.7568 105.023 66.5773 104.41 70.0525L92.3858 138.251Z" fill="white"/>
<path fill-rule="evenodd" clip-rule="evenodd" d="M119.908 73.3108C119.908 73.3108 143.853 76.5762 136.063 112.654C128.445 161.479 165.896 175.128 165.896 175.128L241.267 172.635C241.267 172.635 197.437 149.706 200.765 119.513C203.582 93.9815 204.291 82.5528 176.561 73.3066H119.908V73.3108Z" fill="url(#paint2_linear_21_83)"/>
<path d="M149.625 137.231C149.974 131.287 158.013 131.006 161.752 133.678C171.997 141.001 171.927 156.076 171.517 167.391C171.374 171.329 171.063 175.206 170.296 179.076C169.519 182.997 169.126 187.198 168.032 191.037C166.97 194.764 164.46 192.368 163.091 190.129C157.838 181.545 158.381 170.052 160.65 160.68C162.216 154.211 164.627 147.35 169.233 142.363C172.114 139.243 176.05 137.206 179.962 135.692C181.89 134.945 184.83 133.768 186.951 134.369C188.7 134.865 189.072 138.635 189.156 139.995C189.275 141.931 187.888 153.391 184.332 149.232C181.609 146.046 181.791 141.656 185.573 139.442C188.303 137.844 192.766 136.275 194.609 139.817C196.315 143.096 196.808 146.89 196.755 150.535C196.738 151.694 196.564 151.473 196.479 150.337C196.26 147.434 196.543 144.734 197.7 142.028C203.108 129.376 216.671 123.925 229.08 120.572C238.655 117.985 248.23 117.69 258.058 117.69" stroke="white" stroke-width="1.16428" stroke-linecap="round"/>
</g>
<defs>
<linearGradient id="paint0_linear_21_83" x1="158.14" y1="29.2628" x2="115.64" y2="74.4465" gradientUnits="userSpaceOnUse">
<stop stop-color="white"/>
<stop offset="1" stop-color="#FF462D"/>
</linearGradient>
<linearGradient id="paint1_linear_21_83" x1="124.587" y1="16.2896" x2="115.193" y2="93.6833" gradientUnits="userSpaceOnUse">
<stop stop-color="white"/>
<stop offset="1" stop-color="#FF462D"/>
</linearGradient>
<linearGradient id="paint2_linear_21_83" x1="202.875" y1="175.104" x2="92.8236" y2="73.1058" gradientUnits="userSpaceOnUse">
<stop stop-color="white"/>
<stop offset="0.737586" stop-color="#FF462D"/>
</linearGradient>
<clipPath id="clip0_21_83">
<rect width="215" height="171" fill="white" transform="translate(44 23)"/>
</clipPath>
</defs>
</svg>
